<svg fill="none" xmlns="http://www.w3.org/2000/svg" viewBox="0 0 169 356"><path d="M83.186.771c-3.102 0-5.922 1.41-7.614 3.947-4.512 5.638-9.588 10.994-15.51 15.222-2.538 1.973-9.87 7.33-22.56 16.632C23.684 46.72 14.096 55.74 8.174 64.197 1.971 72.654-.849 83.366.28 93.796v146.583c0 16.632 5.357 30.444 16.355 40.874 19.458 19.169 51.042 21.706 62.886 21.988v52.432h9.306v-52.432c11.843-.282 43.427-2.819 62.885-21.988 10.716-10.43 16.356-24.242 16.356-40.874V93.796c.282-1.41.282-2.82.282-4.229 0-9.02-2.82-17.759-8.178-25.088-5.64-8.457-15.228-17.477-29.328-27.625-12.69-9.303-20.022-14.94-22.56-16.632-5.922-4.51-10.998-9.584-15.51-15.222C90.519 2.18 87.698.77 84.596.77h-1.41Z" fill="#2B4858"/></svg>