<svg width="169" height="356" viewBox="0 0 169 356" fill="none" xmlns="http://www.w3.org/2000/svg">
<path d="M83.1856 0.771484C80.0836 0.771484 77.2637 2.18094 75.5717 4.71796C71.0598 10.3558 65.9838 15.7117 60.0619 19.9401C57.5239 21.9133 50.192 27.2693 37.5021 36.5717C23.6843 46.7198 14.0964 55.7403 8.17446 64.197C1.97053 72.6538 -0.84945 83.3656 0.278537 93.7956V240.379C0.278537 257.011 5.63649 270.823 16.6344 281.253C36.0922 300.422 67.6758 302.959 79.5197 303.241V355.673H88.8256V303.241C100.669 302.959 132.253 300.422 151.711 281.253C162.427 270.823 168.067 257.011 168.067 240.379V93.7956C168.349 92.3861 168.349 90.9767 168.349 89.5672C168.349 80.5467 165.529 71.8081 160.171 64.4789C154.531 56.0222 144.943 47.0017 130.843 36.8536C118.153 27.5512 110.821 21.9133 108.283 20.222C102.361 15.7117 97.2855 10.6377 92.7735 4.99985C90.5176 2.18094 87.6976 0.771484 84.5956 0.771484H83.1856Z" fill="#2B4858"/>
</svg>
