<svg width="169" height="356" viewBox="0 0 169 356" fill="none" xmlns="http://www.w3.org/2000/svg">
<path d="M83.1856 0.771484C80.0836 0.771484 77.2637 2.18094 75.5717 4.71796C71.0598 10.3558 65.9838 15.7117 60.0619 19.9401C57.5239 21.9133 50.192 27.2693 37.5021 36.5717C23.6843 46.7198 14.0964 55.7403 8.17446 64.197C1.97053 72.6538 -0.84945 83.3656 0.278537 93.7956V240.379C0.278537 257.011 5.63649 270.823 16.6344 281.253C36.0922 300.422 67.6758 302.959 79.5197 303.241V355.673H88.8256V303.241C100.669 302.959 132.253 300.422 151.711 281.253C162.427 270.823 168.067 257.011 168.067 240.379V93.7956C168.349 92.3861 168.349 90.9767 168.349 89.5672C168.349 80.5467 165.529 71.8081 160.171 64.4789C154.531 56.0222 144.943 47.0017 130.843 36.8536C118.153 27.5512 110.821 21.9133 108.283 20.222C102.361 15.7117 97.2855 10.6377 92.7735 4.99985C90.5176 2.18094 87.6976 0.771484 84.5956 0.771484H83.1856Z" fill="#2B4858"/>
<path d="M65.7024 27.2691C70.4964 23.3226 75.0083 19.0942 79.2383 14.584V127.622L45.6807 42.2093C56.6785 34.0345 63.4464 29.2423 65.7024 27.2691Z" fill="#C6EA74"/>
<path d="M88.5439 156.376L158.479 151.865V235.023L88.5439 225.721V156.376Z" fill="#42A890"/>
<path d="M9.30414 93.514V92.9503C8.45815 84.4935 10.7141 76.3187 15.7901 69.5533C21.994 61.0965 29.6079 53.7674 38.0678 47.8477L77.8294 149.047L9.58615 169.625L9.30414 93.514Z" fill="#77BD80"/>
<path d="M9.30273 179.208L79.238 158.066V226.284L10.1487 250.245C9.58474 246.862 9.30273 243.479 9.30273 239.815V179.208Z" fill="#38857E"/>
<path d="M22.8391 274.207C18.6092 269.979 15.2252 265.187 12.9692 259.549L79.2385 236.434V293.658C68.2406 293.376 39.7589 290.839 22.8391 274.207Z" fill="#2E5D69"/>
<path d="M88.5439 293.656V235.305L158.197 244.325C157.915 255.601 153.121 266.313 145.225 274.206C128.305 290.837 99.5418 293.092 88.5439 293.656Z" fill="#38857E"/>
<path d="M158.479 92.9502V142.281L94.4653 146.51L155.377 74.9092C158.197 80.547 159.325 86.7486 158.479 92.9502Z" fill="#56AF85"/>
<path d="M102.362 27.551C104.9 29.5242 112.232 35.1621 125.204 44.4645C134.509 50.6661 142.969 58.2771 150.019 66.7339L88.5439 139.462V14.584C92.7739 19.3761 97.2858 23.6045 102.362 27.551Z" fill="#9BC97C"/>
</svg>
