<svg width="30" height="63" fill="none" xmlns="http://www.w3.org/2000/svg"><path d="M14.877.697c-.541 0-1.033.246-1.329.69-.787.983-1.673 1.918-2.707 2.656-.443.345-1.723 1.28-3.938 2.903-2.412 1.772-4.085 3.346-5.119 4.822a7.44 7.44 0 0 0-1.378 5.167V42.52c0 2.904.935 5.315 2.855 7.135 3.396 3.346 8.91 3.789 10.977 3.838v9.152h1.624v-9.152c2.067-.05 7.58-.492 10.977-3.838 1.87-1.82 2.855-4.231 2.855-7.135V16.935c.049-.246.049-.492.049-.738 0-1.575-.492-3.1-1.428-4.38-.984-1.476-2.658-3.05-5.119-4.822-2.215-1.623-3.495-2.607-3.938-2.903a15.389 15.389 0 0 1-2.707-2.657c-.394-.492-.886-.738-1.427-.738h-.247Z" fill="#2B4858"/><path d="M11.826 5.322a25.152 25.152 0 0 0 2.362-2.214V22.84L8.331 7.93c1.92-1.427 3.1-2.263 3.495-2.608Z" fill="#C6EA74"/><path d="m15.813 27.858 12.207-.787v14.515l-12.207-1.623V27.858Z" fill="#42A890"/><path d="M1.98 16.886v-.099a5.77 5.77 0 0 1 1.133-4.084 16.709 16.709 0 0 1 3.889-3.788l6.94 17.664L2.03 30.171l-.05-13.285Z" fill="#77BD80"/><path d="m1.98 31.844 12.208-3.69V40.06l-12.06 4.183c-.098-.59-.147-1.181-.147-1.821v-10.58Z" fill="#38857E"/><path d="M4.344 48.426c-.739-.738-1.33-1.574-1.723-2.558l11.567-4.035v9.988c-1.92-.049-6.891-.492-9.844-3.395Z" fill="#2E5D69"/><path d="M15.813 51.821V41.636L27.97 43.21c-.05 1.968-.886 3.838-2.265 5.216-2.953 2.903-7.974 3.297-9.893 3.395Z" fill="#38857E"/><path d="M28.02 16.787v8.611l-11.174.738L27.48 13.638a5.38 5.38 0 0 1 .541 3.15Z" fill="#56AF85"/><path d="M18.225 5.372c.443.344 1.722 1.328 3.987 2.952a20.413 20.413 0 0 1 4.331 3.887l-10.73 12.695V3.108a17.512 17.512 0 0 0 2.412 2.264Z" fill="#9BC97C"/></svg>