<svg width="296" height="129" viewBox="0 0 296 129" fill="none" xmlns="http://www.w3.org/2000/svg">
<path d="M70.5914 16.0037V15.9172C70.5048 7.26654 77.428 0.0865065 86.0818 0C86.2549 0 86.3415 0 86.5145 0C91.88 0 95.1684 1.47061 98.3704 4.15231L94.9088 8.21812C92.5723 6.05545 89.4569 4.84436 86.2549 4.93087C80.5434 4.93087 76.2164 9.94825 76.2164 15.8307V15.9172C76.2164 22.2322 80.3703 26.9035 86.6876 26.9035C89.3703 26.9035 91.9665 26.125 94.13 24.5678V18.7719H86.2549V14.1006H99.4088V27.0765C95.8607 30.1908 91.2742 31.9209 86.5145 31.9209C76.9953 31.9209 70.5914 25.0004 70.5914 16.0037Z" fill="#155255"/>
<path d="M106.591 0.519287H120.351C124.245 0.519287 127.274 1.64386 129.265 3.63351C130.995 5.45015 131.947 7.78582 131.861 10.2945V10.381C131.861 15.4849 128.832 18.5126 124.505 19.7237L132.813 31.4021H126.409L118.793 20.6753H111.957V31.4021H106.505L106.591 0.519287ZM119.918 15.8309C123.813 15.8309 126.322 13.8413 126.322 10.6405V10.554C126.322 7.26679 123.899 5.45015 119.918 5.45015H112.043V15.8309H119.918Z" fill="#155255"/>
<path d="M139.39 0.519287H162.323V5.36364H144.842V13.4087H160.332V18.2531H144.842V26.5577H162.496V31.4021H139.39V0.519287Z" fill="#155255"/>
<path d="M169.852 0.519287H192.784V5.36364H175.304V13.4087H190.708V18.2531H175.217V26.5577H192.871V31.4021H169.765V0.519287H169.852Z" fill="#155255"/>
<path d="M198.496 0.519287H203.515L220.13 21.8864V0.519287H225.496V31.4021H220.909L203.861 9.42944V31.4021H198.496V0.519287Z" fill="#155255"/>
<path d="M0.321847 64.4473V64.3608C0.235309 55.7101 7.15842 48.5301 15.8123 48.4436C15.9854 48.4436 16.0719 48.4436 16.245 48.4436C21.6104 48.4436 24.8989 49.9142 28.1008 52.5959L24.6393 56.6617C22.3027 54.4991 19.1873 53.288 15.9854 53.3745C10.2738 53.3745 5.94688 58.3919 5.94688 64.2743V64.3608C5.94688 70.6758 10.1007 75.3471 16.4181 75.3471C19.1008 75.3471 21.697 74.5686 23.8604 73.0114V67.2155H15.9854V62.5442H29.1393V75.5201C25.5912 78.6344 21.0046 80.3645 16.245 80.3645C6.63919 80.3645 0.321847 73.444 0.321847 64.4473Z" fill="#155255"/>
<path d="M36.322 48.9629H59.1683V53.8072H41.6874V61.8524H57.1779V66.6967H41.6874V75.0013H59.4279V79.8457H36.322V48.9629Z" fill="#155255"/>
<path d="M65.8315 48.9629H70.8508L87.3797 70.33V48.9629H92.7452V79.8457H88.2451L71.197 57.873V79.8457H65.8315V48.9629Z" fill="#155255"/>
<path d="M100.707 48.9629H123.64V53.8072H106.159V61.8524H121.649V66.6967H106.159V75.0013H123.813V79.8457H100.707V48.9629Z" fill="#155255"/>
<path d="M131.169 48.9629H144.928C148.823 48.9629 151.851 50.0875 153.842 52.0771C155.573 53.8938 156.438 56.2294 156.351 58.7381V58.8246C156.351 63.9285 153.323 66.9562 148.996 68.1673L157.303 79.8457H150.9L143.284 69.1189H136.448V79.8457H130.996L131.169 48.9629ZM144.582 64.2745C148.476 64.2745 150.9 62.2849 150.9 59.0841V58.9976C150.9 55.7104 148.476 53.8938 144.496 53.8938H136.621V64.2745H144.582Z" fill="#155255"/>
<path d="M174.006 48.7031H179.025L192.611 79.7589H186.9L183.784 72.3194H169.159L165.957 79.7589H160.419L174.006 48.7031ZM181.794 67.5615L176.429 55.1911L171.15 67.5615H181.794Z" fill="#155255"/>
<path d="M200.659 53.9803H190.88V48.9629H215.977V53.9803H206.111V79.8457H200.659V53.9803Z" fill="#155255"/>
<path d="M221.169 48.9629H226.621V79.8457H221.169V48.9629Z" fill="#155255"/>
<path d="M231.64 64.4476V64.3611C231.813 55.451 239.169 48.3574 248.083 48.5304C256.736 48.7035 263.66 55.624 263.919 64.2746V64.3611C263.746 73.2713 256.39 80.3648 247.477 80.1918C238.909 80.0188 231.9 73.0983 231.64 64.4476ZM258.294 64.4476V64.3611C258.294 58.3922 253.967 53.3748 247.823 53.3748C241.679 53.3748 237.438 58.3057 237.438 64.2746V64.3611C237.438 70.3301 241.765 75.2609 247.909 75.2609C254.054 75.2609 258.294 70.4166 258.294 64.4476Z" fill="#155255"/>
<path d="M268.766 48.9629H273.785L290.314 70.33V48.9629H295.679V79.8457H291.093L274.131 57.873V79.8457H268.766V48.9629Z" fill="#155255"/>
<path d="M88.1588 97.4065H111.092V102.337H93.5242V110.728H109.101V115.659H93.5242V128.203H88.0723V97.4065H88.1588Z" fill="#155255"/>
<path d="M116.63 115.14V97.4065H122.082V114.967C122.082 120.677 125.024 123.704 129.871 123.704C134.717 123.704 137.659 120.85 137.659 115.14V97.4065H143.111V114.881C143.111 124.137 137.919 128.722 129.784 128.722C121.649 128.722 116.63 124.137 116.63 115.14Z" fill="#155255"/>
<path d="M149.602 97.4065H154.621L171.15 118.774V97.4065H176.515V128.289H172.015L154.967 106.317V128.289H149.602V97.4065Z" fill="#155255"/>
<path d="M182.746 97.4065H194.256C203.948 97.4065 210.698 104.067 210.698 112.718V112.805C210.698 121.455 203.948 128.203 194.256 128.203H182.746V97.4065ZM188.111 102.337V123.358H194.169C200.659 123.358 204.9 119.033 204.9 112.978V112.891C204.9 106.836 200.659 102.424 194.169 102.424L188.111 102.337Z" fill="#155255"/>
</svg>
